<svg width="88" height="99" viewBox="0 0 88 99" fill="none" xmlns="http://www.w3.org/2000/svg">
<path d="M87.9955 29.0778C87.9948 27.4148 87.6392 25.9453 86.9199 24.6844C86.2134 23.4438 85.1553 22.4044 83.736 21.5825C72.0208 14.8274 60.2942 8.09302 48.5828 1.33107C45.4254 -0.491715 42.3642 -0.424918 39.2302 1.42404C34.5672 4.17372 11.2211 17.5492 4.26431 21.5787C1.39928 23.2376 0.00516468 25.7759 0.00447606 29.0747C0 42.6596 0.00447606 56.2444 0 69.8292C0 71.4558 0.341213 72.897 1.0288 74.139C1.73568 75.4167 2.80855 76.4848 4.26052 77.3252C11.2177 81.3547 34.5669 94.7292 39.2289 97.4799C42.3642 99.3299 45.4255 99.396 48.5838 97.5729C60.2956 90.8106 72.0229 84.0762 83.7398 77.3211C85.1918 76.481 86.2647 75.4122 86.9715 74.1355C87.6581 72.8933 88 71.4523 88 69.8254C88 69.8254 88 42.663 87.9955 29.0778Z" fill="#A179DC"/>
<path d="M44.1346 49.3195L1.02875 74.1389C1.73562 75.4166 2.8085 76.4847 4.26046 77.3251C11.2176 81.3546 34.5668 94.7291 39.2288 97.4798C42.3641 99.3298 45.4254 99.3959 48.5838 97.5728C60.2955 90.8105 72.0228 84.0761 83.7398 77.321C85.1917 76.4809 86.2646 75.4121 86.9715 74.1354L44.1346 49.3195Z" fill="#8C65C9"/>
<path d="M87.9954 29.0778C87.9947 27.4147 87.6391 25.9452 86.9198 24.6843L44.1345 49.3199L86.9714 74.1355C87.658 72.8932 87.9992 71.4523 87.9999 69.8254C87.9999 69.8254 87.9999 42.6629 87.9954 29.0778Z" fill="#B07CFF"/>
<path d="M69.514 40.0417V44.6809H74.1532V40.0417H76.4729V44.6809H81.1121V47.0006H76.4729V51.6395H81.1121V53.9591H76.4729V58.5984H74.1532V53.9591H69.514V58.5984H67.1943V53.9591H62.5554V51.6395H67.1943V47.0006H62.5554V44.6809H67.1943V40.0417H69.514ZM74.1532 47.0002H69.514V51.6395H74.1532V47.0002Z" fill="white"/>
<path d="M44.2294 16.7426C56.3299 16.7426 66.8944 23.3141 72.5532 33.0822L72.4981 32.9882L58.2608 41.1856C55.456 36.4365 50.314 33.2313 44.4149 33.1652L44.229 33.1642C35.2338 33.1642 27.9413 40.4567 27.9413 49.4519C27.9384 52.2871 28.6791 55.0734 30.0895 57.5329C32.897 62.4342 38.175 65.7399 44.2294 65.7399C50.3213 65.7399 55.6292 62.3922 58.4222 57.4385L58.3544 57.5573L72.57 65.7926C66.9732 75.4781 56.5533 82.0293 44.5936 82.1598L44.2294 82.1619C32.0906 82.1619 21.4961 75.5497 15.8515 65.7299C13.096 60.9361 11.5193 55.3785 11.5193 49.4519C11.5193 31.3872 26.1636 16.7422 44.229 16.7422L44.2294 16.7426Z" fill="white"/>
</svg>
