<svg width="88" height="100" viewBox="0 0 88 100" fill="none" xmlns="http://www.w3.org/2000/svg">
<path d="M43.9462 99.8014L8.00869 89.8248L0 0H88L79.983 89.811L43.9462 99.8014Z" fill="#B07CFF"/>
<path d="M73.1196 84.0921L79.9703 7.34433H44V92.1649L73.1196 84.0921Z" fill="#A179DC"/>
<path d="M18.3595 40.6592L19.3468 51.6758H43.9999V40.6592H18.3595ZM16.3754 18.3613L17.3768 29.3779H43.9999V18.3613H16.3754ZM43.9999 69.2706L43.9516 69.2834L31.6825 65.9705L30.8981 57.1843H19.839L21.3823 74.4821L43.9492 80.7464L43.9999 80.7326V69.2706Z" fill="#EBEBEB"/>
<path d="M69.5701 40.6592L71.5588 18.3613H43.9621V29.3779H59.4855L58.4831 40.6592H43.9621V51.6758H57.528L56.2489 65.9636L43.9618 69.2799V80.7412L66.5467 74.4821L66.7122 72.6208L69.3014 43.6174L69.5701 40.6592Z" fill="white"/>
</svg>
