<svg width="88" height="100" viewBox="0 0 88 100" fill="none" xmlns="http://www.w3.org/2000/svg">
<path d="M88 0L79.983 89.811L43.9462 99.8014L8.00869 89.8248L0 0H88Z" fill="#A179DC"/>
<path d="M44 92.1649L73.1196 84.092L79.9703 7.3443H44V92.1649Z" fill="#B07CFF"/>
<path d="M28.4153 29.3779H44.0001V18.3613H16.3755L16.639 21.3168L19.3469 51.6758H44.0001V40.6592H29.4222L28.4153 29.3779ZM30.8982 57.1843H19.8391L21.3824 74.4821L43.9494 80.7464L44.0001 80.7326V69.2706L43.9518 69.2834L31.6826 65.9705L30.8982 57.1843Z" fill="#EBEBEB"/>
<path d="M43.962 51.6758H57.5278L56.2488 65.9636L43.9617 69.2799V80.7412L66.5465 74.4821L66.7121 72.6208L69.3013 43.6174L69.57 40.6592H43.962V51.6758ZM43.962 29.351V29.3779H70.5724L70.7932 26.9019L71.2954 21.3168L71.5586 18.3613H43.962V29.3514V29.351Z" fill="white"/>
</svg>
