<svg width="90" height="90" viewBox="0 0 90 90" fill="none" xmlns="http://www.w3.org/2000/svg">
<path d="M15.9375 7.25414e-06H74.0625C76.156 -0.00201648 78.2293 0.419408 80.1638 1.24016C82.0984 2.06092 83.8561 3.26489 85.3364 4.78317C86.8167 6.30145 87.9906 8.10424 88.7909 10.0884C89.5911 12.0725 90.002 14.199 90 16.3462V73.6538C90.002 75.801 89.5911 77.9275 88.7909 79.9116C87.9906 81.8958 86.8167 83.6985 85.3364 85.2168C83.8561 86.7351 82.0984 87.9391 80.1638 88.7598C78.2293 89.5806 76.156 90.002 74.0625 90H15.9375C13.844 90.002 11.7707 89.5806 9.83615 88.7598C7.90164 87.9391 6.14392 86.7351 4.66359 85.2168C3.18327 83.6985 2.00939 81.8958 1.20916 79.9116C0.408923 77.9275 -0.00196606 75.801 7.07278e-06 73.6538V16.3462C-0.00196606 14.199 0.408923 12.0725 1.20916 10.0884C2.00939 8.10424 3.18327 6.30145 4.66359 4.78317C6.14392 3.26489 7.90164 2.06092 9.83615 1.24016C11.7707 0.419408 13.844 -0.00201648 15.9375 7.25414e-06Z" fill="#B07CFF"/>
<path d="M18.9069 39.5937C15.9199 39.5937 13.5 42.0139 13.5 45.0007C13.5 47.986 15.9199 50.4059 18.9069 50.4059C21.8923 50.4059 24.3122 47.986 24.3122 45.0007C24.3122 42.0139 21.8923 39.5937 18.9069 39.5937ZM57.5039 64.163C54.9183 65.6564 54.0317 68.9607 55.5254 71.5449C57.0171 74.1305 60.3214 75.0168 62.9071 73.5235C65.4924 72.0318 66.379 68.7274 64.8856 66.1415C63.3939 63.5576 60.0877 62.6713 57.5039 64.163ZM30.649 45.0007C30.649 39.6585 33.3025 34.9389 37.3627 32.0809L33.4106 25.4615C28.6809 28.623 25.1619 33.454 23.6994 39.1121C25.4059 40.5046 26.4981 42.6243 26.4981 45.0004C26.4981 47.3751 25.4059 49.4949 23.6994 50.8873C25.1599 56.5471 28.679 61.3783 33.4106 64.5398L37.3627 57.9188C33.3025 55.0625 30.649 50.3431 30.649 45.0007ZM46.4387 29.2093C54.6876 29.2093 61.4553 35.534 62.1657 43.5999L69.8685 43.4863C69.4895 37.5316 66.8882 32.1859 62.8911 28.2549C60.8356 29.0315 58.4614 28.9127 56.4093 27.7298C54.3536 26.5435 53.0647 24.5423 52.7124 22.37C50.7146 21.8186 48.612 21.5167 46.4382 21.5167C42.7013 21.5167 39.1682 22.3945 36.0312 23.9472L39.7874 30.6782C41.8081 29.7378 44.0623 29.2093 46.4387 29.2093ZM46.4387 60.7903C44.0623 60.7903 41.8081 60.2616 39.7876 59.3215L36.0314 66.0523C39.1684 67.6068 42.7015 68.4848 46.4387 68.4848C48.6124 68.4848 50.715 68.1827 52.7126 67.6297C53.065 65.4574 54.3543 63.4581 56.4095 62.2697C58.4631 61.0848 60.8359 60.9682 62.8913 61.7447C66.8885 57.8138 69.4898 52.4681 69.8688 46.5133L62.1641 46.3998C61.4553 54.4678 54.6879 60.7903 46.4387 60.7903ZM57.502 25.835C60.0876 27.3281 63.3922 26.4437 64.8839 23.8581C66.3773 21.2725 65.4929 17.9679 62.9071 16.4743C60.3214 14.9826 57.0171 15.8689 55.5232 18.4545C54.0318 21.0387 54.9181 24.3433 57.502 25.835Z" fill="white"/>
</svg>
