<svg id="wave" style="transform:rotate(180deg)" viewBox="0 0 1440 290" version="1.1" xmlns="http://www.w3.org/2000/svg"><defs><linearGradient id="sw-gradient-0" x1="0" x2="0" y1="1" y2="0"><stop stop-color="rgba(0, 0, 0, 1)" offset="0%"></stop><stop stop-color="rgba(141, 120, 255, 1)" offset="100%"></stop></linearGradient></defs><path style="transform:translate(0, 0px); opacity:1" fill="url(#sw-gradient-0)" d="M0,261L40,232C80,203,160,145,240,145C320,145,400,203,480,188.5C560,174,640,87,720,82.2C800,77,880,155,960,174C1040,193,1120,155,1200,145C1280,135,1360,155,1440,174C1520,193,1600,213,1680,212.7C1760,213,1840,193,1920,198.2C2000,203,2080,232,2160,227.2C2240,222,2320,184,2400,183.7C2480,184,2560,222,2640,236.8C2720,251,2800,242,2880,236.8C2960,232,3040,232,3120,222.3C3200,213,3280,193,3360,198.2C3440,203,3520,232,3600,222.3C3680,213,3760,164,3840,125.7C3920,87,4000,58,4080,38.7C4160,19,4240,10,4320,9.7C4400,10,4480,19,4560,38.7C4640,58,4720,87,4800,82.2C4880,77,4960,39,5040,19.3C5120,0,5200,0,5280,33.8C5360,68,5440,135,5520,154.7C5600,174,5680,145,5720,130.5L5760,116L5760,290L5720,290C5680,290,5600,290,5520,290C5440,290,5360,290,5280,290C5200,290,5120,290,5040,290C4960,290,4880,290,4800,290C4720,290,4640,290,4560,290C4480,290,4400,290,4320,290C4240,290,4160,290,4080,290C4000,290,3920,290,3840,290C3760,290,3680,290,3600,290C3520,290,3440,290,3360,290C3280,290,3200,290,3120,290C3040,290,2960,290,2880,290C2800,290,2720,290,2640,290C2560,290,2480,290,2400,290C2320,290,2240,290,2160,290C2080,290,2000,290,1920,290C1840,290,1760,290,1680,290C1600,290,1520,290,1440,290C1360,290,1280,290,1200,290C1120,290,1040,290,960,290C880,290,800,290,720,290C640,290,560,290,480,290C400,290,320,290,240,290C160,290,80,290,40,290L0,290Z"></path><defs><linearGradient id="sw-gradient-1" x1="0" x2="0" y1="1" y2="0"><stop stop-color="rgba(0, 0, 0, 1)" offset="0%"></stop><stop stop-color="rgba(141, 120, 255, 1)" offset="100%"></stop></linearGradient></defs><path style="transform:translate(0, 50px); opacity:0.9" fill="url(#sw-gradient-1)" d="M0,174L40,164.3C80,155,160,135,240,149.8C320,164,400,213,480,203C560,193,640,126,720,111.2C800,97,880,135,960,130.5C1040,126,1120,77,1200,91.8C1280,106,1360,184,1440,203C1520,222,1600,184,1680,164.3C1760,145,1840,145,1920,149.8C2000,155,2080,164,2160,154.7C2240,145,2320,116,2400,130.5C2480,145,2560,203,2640,232C2720,261,2800,261,2880,241.7C2960,222,3040,184,3120,140.2C3200,97,3280,48,3360,24.2C3440,0,3520,0,3600,14.5C3680,29,3760,58,3840,87C3920,116,4000,145,4080,169.2C4160,193,4240,213,4320,212.7C4400,213,4480,193,4560,193.3C4640,193,4720,213,4800,217.5C4880,222,4960,213,5040,207.8C5120,203,5200,203,5280,198.2C5360,193,5440,184,5520,188.5C5600,193,5680,213,5720,222.3L5760,232L5760,290L5720,290C5680,290,5600,290,5520,290C5440,290,5360,290,5280,290C5200,290,5120,290,5040,290C4960,290,4880,290,4800,290C4720,290,4640,290,4560,290C4480,290,4400,290,4320,290C4240,290,4160,290,4080,290C4000,290,3920,290,3840,290C3760,290,3680,290,3600,290C3520,290,3440,290,3360,290C3280,290,3200,290,3120,290C3040,290,2960,290,2880,290C2800,290,2720,290,2640,290C2560,290,2480,290,2400,290C2320,290,2240,290,2160,290C2080,290,2000,290,1920,290C1840,290,1760,290,1680,290C1600,290,1520,290,1440,290C1360,290,1280,290,1200,290C1120,290,1040,290,960,290C880,290,800,290,720,290C640,290,560,290,480,290C400,290,320,290,240,290C160,290,80,290,40,290L0,290Z"></path></svg>
