<svg width="90" height="90" viewBox="0 0 90 90" fill="none" xmlns="http://www.w3.org/2000/svg">
<g clip-path="url(#clip0_104_33)">
<path d="M15.9375 7.25414e-06H74.0625C76.156 -0.00201648 78.2293 0.419408 80.1638 1.24016C82.0984 2.06092 83.8561 3.26489 85.3364 4.78317C86.8167 6.30145 87.9906 8.10424 88.7908 10.0884C89.5911 12.0725 90.002 14.199 90 16.3462V73.6538C90.002 75.801 89.5911 77.9275 88.7908 79.9116C87.9906 81.8958 86.8167 83.6985 85.3364 85.2168C83.8561 86.7351 82.0984 87.9391 80.1638 88.7598C78.2293 89.5806 76.156 90.002 74.0625 90H15.9375C13.844 90.002 11.7707 89.5806 9.83615 88.7598C7.90164 87.9391 6.14392 86.7351 4.66359 85.2168C3.18327 83.6985 2.00939 81.8958 1.20916 79.9116C0.408923 77.9275 -0.00196606 75.801 7.07278e-06 73.6538V16.3462C-0.00196606 14.199 0.408923 12.0725 1.20916 10.0884C2.00939 8.10424 3.18327 6.30145 4.66359 4.78317C6.14392 3.26489 7.90164 2.06092 9.83615 1.24016C11.7707 0.419408 13.844 -0.00201648 15.9375 7.25414e-06Z" fill="#F0F0F0"/>
<path d="M44.449 16.2H18V42.648H44.449V16.2Z" fill="#3B3B79"/>
<path d="M73.7999 16.2H47.3508V42.648H73.7999V16.2Z" fill="#3B3B79"/>
<path d="M44.449 45.552H18V72H44.449V45.552Z" fill="#3B3B79"/>
<path d="M73.8001 45.552H47.351V72H73.8001V45.552Z" fill="#3B3B79"/>
</g>
<defs>
<clipPath id="clip0_104_33">
<rect width="90" height="90" fill="white"/>
</clipPath>
</defs>
</svg>
